<svg width="270" height="170" viewBox="0 0 270 170" fill="none" xmlns="http://www.w3.org/2000/svg">
  <g opacity="0.55" stroke="#9B7753" stroke-width="2" stroke-linecap="round" stroke-linejoin="round">
    <path d="M14 105C36 93 54 85 76 74C95 65 114 59 132 46C149 34 169 31 191 20"/>
    <path d="M8 128C36 112 61 101 87 88C111 77 136 65 158 52C181 38 204 31 255 12"/>
    <path d="M23 53C53 65 84 77 112 95C139 111 165 123 199 132C219 137 237 144 260 157"/>
    <path d="M62 18C72 43 86 67 98 91C111 117 119 139 131 161"/>
    <path d="M126 9C133 37 143 62 154 88C164 112 174 135 187 162"/>
    <path d="M191 16C197 40 204 63 211 86C218 109 229 132 240 158"/>
    <path d="M31 19C60 29 89 39 119 50C146 60 176 73 207 79C224 82 239 90 256 98"/>
    <path d="M19 148C42 134 69 124 97 112C128 99 158 87 188 75C209 66 231 57 263 44"/>
    <path d="M85 32C74 54 64 75 52 94C42 110 32 126 21 148"/>
    <path d="M164 26C156 45 147 63 137 82C126 103 116 125 105 151"/>
    <path d="M224 4C217 24 209 45 201 66C193 88 184 111 173 151"/>
  </g>
  <g opacity="0.28" stroke="#6E543C" stroke-width="1.2" stroke-dasharray="5 6" stroke-linecap="round">
    <path d="M40 6C59 43 78 79 95 116"/>
    <path d="M4 82C52 72 90 63 127 53C174 41 215 26 267 8"/>
    <path d="M2 157C51 133 92 112 134 91C177 70 219 51 268 29"/>
  </g>
</svg>
