<svg width="64" height="112" viewBox="0 0 64 112" fill="none" xmlns="http://www.w3.org/2000/svg">
  <filter id="clipShadow" x="-10" y="-10" width="84" height="132" color-interpolation-filters="sRGB">
    <feDropShadow dx="1" dy="3" stdDeviation="2" flood-color="#2b1a10" flood-opacity="0.28"/>
  </filter>
  <g filter="url(#clipShadow)">
    <path d="M41.6 19.2C41.6 11.6 36.6 6.5 29.8 6.5C22.8 6.5 17.7 11.8 17.7 19.2V81.5C17.7 95.2 26.6 104.5 38.7 104.5C50.9 104.5 59 95.7 59 81.5V24.2" stroke="#58504A" stroke-width="6" stroke-linecap="round"/>
    <path d="M41.7 24.1V82.1C41.7 87.5 38.8 91.3 34.1 91.3C29.4 91.3 26.1 87.3 26.1 82.1V20.4C26.1 11.6 32.4 2.9 43.1 2.9C53.9 2.9 61 11 61 21.8V71.1" stroke="#E7D8BF" stroke-width="2.1" stroke-linecap="round" opacity="0.78"/>
    <path d="M40.9 24.4V79.1C40.9 84 38.2 87.1 34.6 87.1C31 87.1 28.2 84 28.2 79.1V23.3" stroke="#2C2A28" stroke-width="2.4" stroke-linecap="round" opacity="0.45"/>
  </g>
</svg>
